<?xml version="1.0" standalone="no"?>
<!DOCTYPE svg PUBLIC "-//W3C//DTD SVG 20010904//EN"
 "http://www.w3.org/TR/2001/REC-SVG-20010904/DTD/svg10.dtd">
<svg version="1.0" xmlns="http://www.w3.org/2000/svg"
 width="700.000000pt" height="700.000000pt" viewBox="0 0 700.000000 700.000000"
 preserveAspectRatio="xMidYMid meet">
<metadata>
Created by potrace 1.11, written by Peter Selinger 2001-2013
</metadata>
<g transform="translate(0.000000,700.000000) scale(0.100000,-0.100000)"
fill="#000000" stroke="none">
<path d="M1098 5828 c-242 -27 -449 -218 -499 -459 -8 -38 -12 -586 -13 -1872
-2 -2021 -7 -1869 64 -2014 34 -69 154 -202 201 -223 13 -6 40 -20 59 -30 36
-20 127 -50 170 -57 31 -5 4819 -5 4840 0 8 2 31 7 50 11 157 36 312 162 384
311 64 133 61 36 61 1700 0 836 -4 1540 -7 1565 -20 133 -98 268 -206 356 -72
59 -136 91 -230 115 -72 18 -121 19 -1273 19 l-1198 0 -291 290 c-160 160
-296 290 -303 291 -73 5 -1759 2 -1809 -3z m3372 -1462 c74 -13 91 -18 152
-48 123 -60 215 -150 275 -270 157 -319 -9 -701 -353 -814 -81 -26 -256 -27
-334 -1 -105 36 -163 71 -241 147 -122 120 -184 274 -174 435 5 85 9 109 37
183 72 195 262 348 458 369 30 3 56 7 58 8 4 4 77 -2 122 -9z m82 -1460 c430
-51 803 -211 935 -401 49 -70 57 -128 54 -391 l-1 -71 -1166 0 -1166 0 4 186
c3 181 4 187 31 239 67 128 228 240 467 326 89 32 283 83 346 91 25 3 49 7 53
9 3 2 42 7 86 11 44 4 81 8 83 10 4 4 224 -3 274 -9z"/>
</g>
</svg>
